<svg width="127" height="30" viewBox="0 0 127 30" fill="none" xmlns="http://www.w3.org/2000/svg">
<path d="M86.3149 22.8931H80.0363V13.8878C80.0363 13.1966 79.9634 12.7159 79.8176 12.4481C79.6718 12.1803 79.4083 12.0464 79.0284 12.0464C78.3237 12.0464 77.9707 12.6661 77.9707 13.9043V22.8919H71.692V13.8865C71.692 13.1953 71.6166 12.7146 71.4657 12.4468C71.3147 12.179 71.0487 12.0451 70.6688 12.0451C69.9743 12.0451 69.6277 12.6649 69.6277 13.9031V22.8906H63.3491V12.6138C63.3491 10.7393 63.9809 9.14661 65.2458 7.83572C66.5108 6.52483 68.043 5.86938 69.8452 5.86938C71.6473 5.86938 73.3701 6.65107 74.8474 8.21317C76.4922 6.65107 78.1382 5.86938 79.783 5.86938C81.8755 5.86938 83.5548 6.62812 84.8198 8.14559C85.8161 9.32896 86.3136 11.053 86.3136 13.3177V22.8919L86.3149 22.8931Z" fill="#7505E0"/>
<path d="M89.2912 29.0701V15.1451C89.2912 12.5896 89.9627 10.5085 91.3056 8.90177C92.0781 7.97599 93.0604 7.23893 94.2524 6.69187C95.4445 6.14482 96.6672 5.87193 97.9206 5.87193C100.416 5.87193 102.52 6.70845 104.233 8.38277C105.945 10.0571 106.801 12.1101 106.801 14.5419C106.801 16.9737 105.95 18.9502 104.249 20.6679C102.548 22.3869 100.534 23.2451 98.2059 23.2451C97.8247 23.2451 97.2658 23.2055 96.5278 23.1278V16.2315C97.042 16.6447 97.5574 16.8513 98.0716 16.8513C98.7213 16.8513 99.2777 16.6116 99.7419 16.1321C100.206 15.6526 100.439 15.0839 100.439 14.4246C100.439 13.7653 100.199 13.2055 99.7164 12.7426C99.2355 12.2797 98.6586 12.0477 97.9871 12.0477C96.3756 12.0477 95.5698 13.1583 95.5698 15.3784V22.8931C95.4483 23.5129 94.7858 26.5402 92.0206 28.1609C91.0025 28.7577 90.01 28.9821 89.2912 29.0689V29.0701Z" fill="#7505E0"/>
<path d="M117.495 5.85535C119.867 5.85535 121.901 6.7059 123.597 8.40828C125.293 10.1094 126.141 12.1497 126.141 14.5253C126.141 16.901 125.281 18.9885 123.563 20.6845C121.846 22.3805 119.772 23.2285 117.344 23.2285C114.915 23.2285 112.839 22.378 111.115 20.6756C109.391 18.9745 108.53 16.924 108.53 14.5241C108.53 12.1242 109.392 10.0252 111.115 8.35599C112.838 6.68805 114.965 5.85408 117.495 5.85408V5.85535ZM117.326 12.0311C116.654 12.0311 116.084 12.2734 115.613 12.7592C115.142 13.2451 114.908 13.8393 114.908 14.5419C114.908 15.2446 115.146 15.8248 115.622 16.3157C116.098 16.8067 116.666 17.0528 117.326 17.0528C117.986 17.0528 118.57 16.8079 119.046 16.3157C119.522 15.8248 119.76 15.2331 119.76 14.5419C119.76 13.8508 119.524 13.2451 119.055 12.7592C118.584 12.2734 118.009 12.0311 117.326 12.0311Z" fill="#7505E0"/>
<path d="M38.4033 15.7546C38.026 14.8773 38.1143 12.6253 38.1143 11.2979H39.5519C40.3154 11.2979 40.9345 10.6807 40.9345 9.91937V7.82041C40.9345 7.05913 40.3154 6.44194 39.5519 6.44194H38.1143V1.42535C38.1143 0.664066 37.4952 0.046875 36.7317 0.046875H36.2699C35.8837 0.046875 35.5166 0.207549 35.2544 0.489365L32.2027 3.78062C31.9661 4.03566 31.8356 4.36976 31.8356 4.71661V13.7551C31.8356 16.1321 32.3165 18.0398 33.2796 19.4795C34.0406 20.6067 35.051 21.4993 36.3096 22.1573C37.5681 22.8153 38.9085 23.1443 40.3308 23.1443H41.0521V16.5644C40.3986 16.5414 38.677 16.3884 38.4033 15.7534V15.7546Z" fill="#7505E0"/>
<path d="M27.1506 16.0275C26.7733 15.1502 26.8616 12.8982 26.8616 11.5707V1.69824C26.8616 0.936955 26.2425 0.319765 25.4789 0.319765H25.0172C24.631 0.319765 24.2639 0.480439 24.0017 0.762255L20.95 4.05351C20.7134 4.30855 20.5829 4.64265 20.5829 4.9895V14.028C20.5829 16.405 21.0638 18.3127 22.0269 19.7523C22.7879 20.8796 23.7983 21.7722 25.0569 22.4302C26.3154 23.0882 27.6558 23.4172 29.0781 23.4172H29.7994V16.8373C29.1459 16.8143 27.4243 16.6613 27.1506 16.0262V16.0275Z" fill="#7505E0"/>
<path d="M60.9867 14.3915C60.9407 2.91605 43.5436 3.24887 43.5449 14.5598C43.4912 24.8148 58.4825 26.5108 60.8537 16.382H55.5152C55.0739 16.382 54.648 16.5758 54.3832 16.9278C53.0595 18.6901 50.3595 17.8714 50.0564 15.5646H60.919C60.9637 15.029 60.9867 14.6388 60.9867 14.3927V14.3915ZM50.1996 12.5998C50.7982 10.3427 54.3461 9.94488 54.6736 12.5998H50.1996Z" fill="#7505E0"/>
<path d="M16.0565 6.10401H13.9474C13.267 6.10401 12.6838 6.51335 12.428 7.09738C12.3397 7.29886 12.2898 7.52202 12.2898 7.75666V13.7449C12.2898 14.7 11.9688 15.6373 11.3395 16.3578C10.7857 16.9928 10.0004 17.4825 8.94522 17.6228C6.82974 17.9033 5.16575 16.8806 4.9189 15.0316C4.67205 13.1813 5.93699 11.5809 8.05247 11.3004C9.15242 11.155 10.4775 11.4955 11.2692 12.1178V6.8347C11.2692 6.711 11.1886 6.59879 11.0684 6.56436C10.2345 6.3208 9.09486 6.07723 8.16886 6.11039C3.7371 6.26851 0.117508 9.84031 0.00239737 14.2614C-0.120387 18.9872 3.69105 23.0181 8.40548 22.8651C10.3918 22.8 11.6503 22.1038 12.5725 21.3157C12.8718 21.6371 13.3808 22.0987 14.1265 22.443C15.0947 22.8893 16.2458 22.9225 16.7945 22.8893C16.9441 22.8804 17.4391 22.758 17.4391 22.6075V7.48249C17.4391 6.7212 16.8201 6.10401 16.0565 6.10401Z" fill="#7505E0"/>
<path d="M8.6536 12.2632C8.41187 12.3103 7.62272 12.4978 6.99857 13.2259C6.42557 13.8941 6.32965 14.6223 6.30918 14.876C5.95746 14.2588 5.95234 13.5129 6.30918 12.9505C6.76835 12.2262 7.75702 11.9125 8.65488 12.2632H8.6536Z" fill="#7505E0"/>
</svg>
